<?xml version="1.0" encoding="UTF-8" standalone="no"?>
<!DOCTYPE svg PUBLIC "-//W3C//DTD SVG 1.1//EN"
 "http://www.w3.org/Graphics/SVG/1.1/DTD/svg11.dtd">
<!-- Generated by graphviz version 2.40.1 (20161225.0304)
 -->
<!-- Title: dependencies Pages: 1 -->
<svg width="1444pt" height="284pt"
 viewBox="0.00 0.00 1444.00 284.00" xmlns="http://www.w3.org/2000/svg" xmlns:xlink="http://www.w3.org/1999/xlink">
<g id="graph0" class="graph" transform="scale(1 1) rotate(0) translate(4 280)">
<title>dependencies</title>
<polygon fill="#ffffff" stroke="transparent" points="-4,4 -4,-280 1440,-280 1440,4 -4,4"/>
<text text-anchor="start" x="697.0091" y="-42.4" font-family="sans-serif" font-weight="bold" font-size="14.00" fill="#000000">Legend</text>
<polygon fill="#ffffb3" stroke="transparent" points="484,-10 484,-30 504,-30 504,-10 484,-10"/>
<text text-anchor="start" x="507.629" y="-15.4" font-family="sans-serif" font-size="14.00" fill="#000000"> &#160;Declarations</text>
<polygon fill="#8dd3c7" stroke="transparent" points="597,-10 597,-30 617,-30 617,-10 597,-10"/>
<text text-anchor="start" x="620.7251" y="-15.4" font-family="sans-serif" font-size="14.00" fill="#000000"> &#160;Module</text>
<polygon fill="#80b1d3" stroke="transparent" points="683,-10 683,-30 703,-30 703,-10 683,-10"/>
<text text-anchor="start" x="706.7812" y="-15.4" font-family="sans-serif" font-size="14.00" fill="#000000"> &#160;Bootstrap</text>
<polygon fill="#fdb462" stroke="transparent" points="780,-10 780,-30 800,-30 800,-10 780,-10"/>
<text text-anchor="start" x="803.6732" y="-15.4" font-family="sans-serif" font-size="14.00" fill="#000000"> &#160;Providers</text>
<polygon fill="#fb8072" stroke="transparent" points="876,-10 876,-30 896,-30 896,-10 876,-10"/>
<text text-anchor="start" x="899.7258" y="-15.4" font-family="sans-serif" font-size="14.00" fill="#000000"> &#160;Exports</text>
<g id="clust1" class="cluster">
<title>cluster_AppModule</title>
<polygon fill="none" stroke="#000000" stroke-dasharray="1,5" points="8,-70 8,-268 1428,-268 1428,-70 8,-70"/>
</g>
<g id="clust2" class="cluster">
<title>cluster_AppModule_declarations</title>
<polygon fill="none" stroke="#000000" points="1023,-78 1023,-130 1420,-130 1420,-78 1023,-78"/>
</g>
<g id="clust6" class="cluster">
<title>cluster_AppModule_imports</title>
<polygon fill="none" stroke="#000000" points="218,-78 218,-130 1015,-130 1015,-78 218,-78"/>
</g>
<g id="clust8" class="cluster">
<title>cluster_AppModule_bootstrap</title>
<polygon fill="none" stroke="#000000" points="658,-208 658,-260 782,-260 782,-208 658,-208"/>
</g>
<g id="clust9" class="cluster">
<title>cluster_AppModule_providers</title>
<polygon fill="none" stroke="#000000" points="16,-78 16,-130 210,-130 210,-78 16,-78"/>
</g>
<!-- AppComponent -->
<g id="node1" class="node">
<title>AppComponent</title>
<polygon fill="#ffffb3" stroke="#000000" points="1411.9399,-122 1306.0601,-122 1306.0601,-86 1411.9399,-86 1411.9399,-122"/>
<text text-anchor="middle" x="1359" y="-99.8" font-family="Times,serif" font-size="14.00" fill="#000000">AppComponent</text>
</g>
<!-- AppModule -->
<g id="node4" class="node">
<title>AppModule</title>
<polygon fill="#8dd3c7" stroke="#000000" points="761.6571,-187 758.6571,-191 737.6571,-191 734.6571,-187 678.3429,-187 678.3429,-151 761.6571,-151 761.6571,-187"/>
<text text-anchor="middle" x="720" y="-164.8" font-family="Times,serif" font-size="14.00" fill="#000000">AppModule</text>
</g>
<!-- AppComponent&#45;&gt;AppModule -->
<g id="edge1" class="edge">
<title>AppComponent&#45;&gt;AppModule</title>
<path fill="none" stroke="#000000" d="M1359,-122.0109C1359,-144.4852 1359,-180 1359,-180 1359,-180 771.9266,-180 771.9266,-180"/>
<polygon fill="#000000" stroke="#000000" points="771.9266,-176.5001 761.9266,-180 771.9265,-183.5001 771.9266,-176.5001"/>
</g>
<!-- SkillsComponent -->
<g id="node2" class="node">
<title>SkillsComponent</title>
<polygon fill="#ffffb3" stroke="#000000" points="1288.7316,-122 1175.2684,-122 1175.2684,-86 1288.7316,-86 1288.7316,-122"/>
<text text-anchor="middle" x="1232" y="-99.8" font-family="Times,serif" font-size="14.00" fill="#000000">SkillsComponent</text>
</g>
<!-- SkillsComponent&#45;&gt;AppModule -->
<g id="edge2" class="edge">
<title>SkillsComponent&#45;&gt;AppModule</title>
<path fill="none" stroke="#000000" d="M1232,-122.1289C1232,-142.5724 1232,-173 1232,-173 1232,-173 771.8991,-173 771.8991,-173"/>
<polygon fill="#000000" stroke="#000000" points="771.8991,-169.5001 761.8991,-173 771.8991,-176.5001 771.8991,-169.5001"/>
</g>
<!-- ProjectsComponent -->
<g id="node3" class="node">
<title>ProjectsComponent</title>
<polygon fill="#ffffb3" stroke="#000000" points="1157.4313,-122 1030.5687,-122 1030.5687,-86 1157.4313,-86 1157.4313,-122"/>
<text text-anchor="middle" x="1094" y="-99.8" font-family="Times,serif" font-size="14.00" fill="#000000">ProjectsComponent</text>
</g>
<!-- ProjectsComponent&#45;&gt;AppModule -->
<g id="edge3" class="edge">
<title>ProjectsComponent&#45;&gt;AppModule</title>
<path fill="none" stroke="#000000" d="M1094,-122.2667C1094,-140.5552 1094,-166 1094,-166 1094,-166 771.8139,-166 771.8139,-166"/>
<polygon fill="#000000" stroke="#000000" points="771.8139,-162.5001 761.8139,-166 771.8139,-169.5001 771.8139,-162.5001"/>
</g>
<!-- AppComponent  -->
<g id="node11" class="node">
<title>AppComponent </title>
<polygon fill="#80b1d3" stroke="#000000" points="774.439,-252 665.561,-252 665.561,-216 774.439,-216 774.439,-252"/>
<text text-anchor="middle" x="720" y="-229.8" font-family="Times,serif" font-size="14.00" fill="#000000">AppComponent </text>
</g>
<!-- AppModule&#45;&gt;AppComponent  -->
<g id="edge10" class="edge">
<title>AppModule&#45;&gt;AppComponent </title>
<path fill="none" stroke="#000000" stroke-dasharray="1,5" d="M720,-187.1061C720,-187.1061 720,-205.991 720,-205.991"/>
<polygon fill="#000000" stroke="#000000" points="716.5001,-205.9909 720,-215.991 723.5001,-205.991 716.5001,-205.9909"/>
</g>
<!-- BrowserModule -->
<g id="node5" class="node">
<title>BrowserModule</title>
<polygon fill="#8dd3c7" stroke="#000000" points="1007.4734,-122 1004.4734,-126 983.4734,-126 980.4734,-122 900.5266,-122 900.5266,-86 1007.4734,-86 1007.4734,-122"/>
<text text-anchor="middle" x="954" y="-99.8" font-family="Times,serif" font-size="14.00" fill="#000000">BrowserModule</text>
</g>
<!-- BrowserModule&#45;&gt;AppModule -->
<g id="edge4" class="edge">
<title>BrowserModule&#45;&gt;AppModule</title>
<path fill="none" stroke="#000000" d="M954,-122.0091C954,-138.0494 954,-159 954,-159 954,-159 771.8345,-159 771.8345,-159"/>
<polygon fill="#000000" stroke="#000000" points="771.8345,-155.5001 761.8345,-159 771.8345,-162.5001 771.8345,-155.5001"/>
</g>
<!-- BrowserAnimationsModule -->
<g id="node6" class="node">
<title>BrowserAnimationsModule</title>
<polygon fill="#8dd3c7" stroke="#000000" points="882.3019,-122 879.3019,-126 858.3019,-126 855.3019,-122 709.6981,-122 709.6981,-86 882.3019,-86 882.3019,-122"/>
<text text-anchor="middle" x="796" y="-99.8" font-family="Times,serif" font-size="14.00" fill="#000000">BrowserAnimationsModule</text>
</g>
<!-- BrowserAnimationsModule&#45;&gt;AppModule -->
<g id="edge5" class="edge">
<title>BrowserAnimationsModule&#45;&gt;AppModule</title>
<path fill="none" stroke="#000000" d="M735.8387,-122.1061C735.8387,-122.1061 735.8387,-140.991 735.8387,-140.991"/>
<polygon fill="#000000" stroke="#000000" points="732.3388,-140.9909 735.8387,-150.991 739.3388,-140.991 732.3388,-140.9909"/>
</g>
<!-- FormsModule -->
<g id="node7" class="node">
<title>FormsModule</title>
<polygon fill="#8dd3c7" stroke="#000000" points="691.8288,-122 688.8288,-126 667.8288,-126 664.8288,-122 596.1712,-122 596.1712,-86 691.8288,-86 691.8288,-122"/>
<text text-anchor="middle" x="644" y="-99.8" font-family="Times,serif" font-size="14.00" fill="#000000">FormsModule</text>
</g>
<!-- FormsModule&#45;&gt;AppModule -->
<g id="edge6" class="edge">
<title>FormsModule&#45;&gt;AppModule</title>
<path fill="none" stroke="#000000" d="M684.918,-122.1061C684.918,-122.1061 684.918,-140.991 684.918,-140.991"/>
<polygon fill="#000000" stroke="#000000" points="681.418,-140.9909 684.918,-150.991 688.418,-140.991 681.418,-140.9909"/>
</g>
<!-- HttpModule -->
<g id="node8" class="node">
<title>HttpModule</title>
<polygon fill="#8dd3c7" stroke="#000000" points="578.4387,-122 575.4387,-126 554.4387,-126 551.4387,-122 493.5613,-122 493.5613,-86 578.4387,-86 578.4387,-122"/>
<text text-anchor="middle" x="536" y="-99.8" font-family="Times,serif" font-size="14.00" fill="#000000">HttpModule</text>
</g>
<!-- HttpModule&#45;&gt;AppModule -->
<g id="edge7" class="edge">
<title>HttpModule&#45;&gt;AppModule</title>
<path fill="none" stroke="#000000" d="M536,-122.0091C536,-138.0494 536,-159 536,-159 536,-159 668.2476,-159 668.2476,-159"/>
<polygon fill="#000000" stroke="#000000" points="668.2476,-162.5001 678.2476,-159 668.2475,-155.5001 668.2476,-162.5001"/>
</g>
<!-- MaterialModule -->
<g id="node9" class="node">
<title>MaterialModule</title>
<polygon fill="#8dd3c7" stroke="#000000" points="475.4706,-122 472.4706,-126 451.4706,-126 448.4706,-122 368.5294,-122 368.5294,-86 475.4706,-86 475.4706,-122"/>
<text text-anchor="middle" x="422" y="-99.8" font-family="Times,serif" font-size="14.00" fill="#000000">MaterialModule</text>
</g>
<!-- MaterialModule&#45;&gt;AppModule -->
<g id="edge8" class="edge">
<title>MaterialModule&#45;&gt;AppModule</title>
<path fill="none" stroke="#000000" d="M422,-122.2667C422,-140.5552 422,-166 422,-166 422,-166 668.2506,-166 668.2506,-166"/>
<polygon fill="#000000" stroke="#000000" points="668.2506,-169.5001 678.2506,-166 668.2506,-162.5001 668.2506,-169.5001"/>
</g>
<!-- FlexLayoutModule -->
<g id="node10" class="node">
<title>FlexLayoutModule</title>
<polygon fill="#8dd3c7" stroke="#000000" points="350.0954,-122 347.0954,-126 326.0954,-126 323.0954,-122 225.9046,-122 225.9046,-86 350.0954,-86 350.0954,-122"/>
<text text-anchor="middle" x="288" y="-99.8" font-family="Times,serif" font-size="14.00" fill="#000000">FlexLayoutModule</text>
</g>
<!-- FlexLayoutModule&#45;&gt;AppModule -->
<g id="edge9" class="edge">
<title>FlexLayoutModule&#45;&gt;AppModule</title>
<path fill="none" stroke="#000000" d="M288,-122.1289C288,-142.5724 288,-173 288,-173 288,-173 668.1855,-173 668.1855,-173"/>
<polygon fill="#000000" stroke="#000000" points="668.1855,-176.5001 678.1855,-173 668.1855,-169.5001 668.1855,-176.5001"/>
</g>
<!-- ParseJsonCvService -->
<g id="node12" class="node">
<title>ParseJsonCvService</title>
<ellipse fill="#fdb462" stroke="#000000" cx="113" cy="-104" rx="89.1819" ry="18"/>
<text text-anchor="middle" x="113" y="-99.8" font-family="Times,serif" font-size="14.00" fill="#000000">ParseJsonCvService</text>
</g>
<!-- ParseJsonCvService&#45;&gt;AppModule -->
<g id="edge11" class="edge">
<title>ParseJsonCvService&#45;&gt;AppModule</title>
<path fill="none" stroke="#000000" d="M113,-122.0109C113,-144.4852 113,-180 113,-180 113,-180 668.2784,-180 668.2784,-180"/>
<polygon fill="#000000" stroke="#000000" points="668.2785,-183.5001 678.2784,-180 668.2784,-176.5001 668.2785,-183.5001"/>
</g>
</g>
</svg>
